<svg xmlns="http://www.w3.org/2000/svg" viewBox="0 0 410 404"><path fill="#41d1ff" d="M399.641 59.525 217.76 388.81c-3.933 6.893-13.846 6.87-17.746-.043L10.62 59.525c-4.21-7.386 2.386-16.31 10.84-14.832l177.502 31.264a10 10 0 0 0 3.44 0l177.4-31.264c8.454-1.478 15.05 7.446 10.84 14.832Z"/><path fill="#bd34fe" d="M292.965.095 156.3 27.925a5 5 0 0 0-3.955 4.936l-8.198 185.63a5 5 0 0 0 6.437 5.064l38.35-10.546c3.14-.864 6.29 1.36 6.168 4.636l-1.145 31.416c-.12 3.3 3.18 5.82 6.42 4.83l24.043-7.105c3.24-.958 6.54 1.54 6.42 4.84l-2.036 55.867c-.12 3.31 3.2 5.82 6.45 4.81l14.97-4.64c3.25-1.01 6.57 1.51 6.45 4.82l-3.237 89.11c-.114 3.14 2.826 5.57 5.885 4.81l24.853-6.48c3.06-.8 5.99 1.74 5.89 4.9l-.267 7.82c-.096 2.8 2.66 5 5.42 4.27l15.092-3.88c3.07-.79 6.01 1.75 5.91 4.92l-.415 12.43c-.08 2.6 2.31 4.69 4.86 4.25l47.945-8.1c3.45-.58 5.13-4.6 3.23-7.52L303.258 5.076c-1.593-2.38-4.48-3.5-7.292-2.982Z"/></svg>
